<svg xmlns="http://www.w3.org/2000/svg" width="300" height="300" viewBox="0 0 124.724 124.724" color-interpolation-filters="sRGB" fill="none" fill-rule="evenodd" font-size="12" overflow="visible" stroke-linecap="square" stroke-miterlimit="3"><style>.prefix__st1,.prefix__st3{fill:#fff;stroke:#000;stroke-linecap:round;stroke-linejoin:round;stroke-width:.75}.prefix__st3{fill:#000}</style><g id="prefix__shape1-1" transform="translate(5.67 -21.685)"><path class="prefix__st1" d="M0 39.685h113.386v85.039H0z"/></g><g id="prefix__shape12-3" transform="translate(76.535 -21.685)"><path fill="#f2f2f2" stroke="#000" stroke-linecap="round" stroke-linejoin="round" stroke-width=".75" d="M0 39.685h42.52v85.039H0z"/></g><g id="prefix__shape14-5" transform="translate(85.04 -89.716)"><path class="prefix__st1" d="M0 117.921h24.661v6.803H0z"/></g><g id="prefix__shape15-7" transform="translate(85.04 -78.661)"><path class="prefix__st1" d="M0 117.921h24.661v6.803H0z"/></g><g id="prefix__group29-9" transform="translate(85.465 -35.858)"><g id="prefix__shape30-10"><rect y="117.921" width="16.157" height="6.803" rx="3.402" ry="3.402" class="prefix__st1"/></g><g id="prefix__shape31-12" transform="translate(9.07)"><ellipse cx="3.543" cy="121.323" rx="3.543" ry="3.402" class="prefix__st3"/></g></g><g id="prefix__group32-14" transform="translate(85.465 -48.047)"><g id="prefix__shape27-15"><rect y="117.921" width="16.157" height="6.803" rx="3.402" ry="3.402" class="prefix__st1"/></g><g id="prefix__shape28-17"><ellipse cx="3.543" cy="121.323" rx="3.543" ry="3.402" class="prefix__st3"/></g></g><g id="prefix__group44-19" transform="translate(10.228 -34.157)"><g id="prefix__shape45-20"><path d="M7.74 62.88c-2.55.02-5.01 1.54-6.21 3.78-1.26 2.23-1.18 5.13.19 7.29 1.27 2.08 3.64 3.46 6.09 3.45h5.73v7.37C9.03 87.78 4.51 90.79 0 93.8c4.51 3.01 9.03 6.02 13.54 9.03v7.37H.64v14.52h27.42V110.2h-12.9v-7.37l12.33-8.22h7.56v8.6h27.43V88.69H35.05V93h-7.56c-4.11-2.75-8.22-5.49-12.33-8.23V77.4c2.01-.01 4.03.01 6.05-.01 2.62-.11 5.08-1.8 6.17-4.18 1.06-2.21.88-4.96-.48-7.01-1.29-2.03-3.65-3.35-6.07-3.32H7.74zm.11 1.61c4.41.01 8.81-.01 13.22.01 2.11.06 4.09 1.46 4.92 3.4.81 1.84.54 4.1-.71 5.68-1.07 1.41-2.83 2.27-4.61 2.21-4.34-.01-8.68 0-13.03-.01-2.11-.06-4.08-1.44-4.92-3.37-.82-1.83-.56-4.1.68-5.68 1.04-1.38 2.72-2.25 4.45-2.24zm6.87 21.93l11.1 7.38c-3.83 2.55-7.65 5.09-11.47 7.63-3.82-2.54-7.65-5.08-11.47-7.63l11.47-7.63.37.25zm22.62 3.89h23.53v11.29h-24.2V90.31h.67zM2.92 111.82h23.53v11.29H2.25v-11.29h.67z" fill="#000" stroke-linecap="butt" stroke-width=".075"/></g></g></svg>
