<?xml version="1.0" encoding="UTF-8" standalone="no"?>
<svg
   xmlns:dc="http://purl.org/dc/elements/1.1/"
   xmlns:cc="http://creativecommons.org/ns#"
   xmlns:rdf="http://www.w3.org/1999/02/22-rdf-syntax-ns#"
   xmlns:svg="http://www.w3.org/2000/svg"
   xmlns="http://www.w3.org/2000/svg"
   xmlns:sodipodi="http://sodipodi.sourceforge.net/DTD/sodipodi-0.dtd"
   xmlns:inkscape="http://www.inkscape.org/namespaces/inkscape"
   inkscape:export-ydpi="96"
   inkscape:export-xdpi="96"
   inkscape:export-filename="C:\Projects\VisioOnlineSpfxWebPart\docs\icon.png"
   inkscape:version="1.0 (4035a4fb49, 2020-05-01)"
   sodipodi:docname="icon.svg"
   id="svg62"
   version="1.1"
   class="st5"
   color-interpolation-filters="sRGB"
   xml:space="preserve"
   viewBox="0 0 224.99972 224.99972"
   height="300"
   width="300"><metadata
   id="metadata68"><rdf:RDF><cc:Work
       rdf:about=""><dc:format>image/svg+xml</dc:format><dc:type
         rdf:resource="http://purl.org/dc/dcmitype/StillImage" /><dc:title></dc:title></cc:Work></rdf:RDF></metadata><defs
   id="defs66" /><sodipodi:namedview
   inkscape:current-layer="svg62"
   inkscape:window-maximized="0"
   inkscape:window-y="0"
   inkscape:window-x="0"
   inkscape:cy="151.5252"
   inkscape:cx="-136.84764"
   inkscape:zoom="1.8071101"
   units="px"
   inkscape:lockguides="false"
   showgrid="false"
   id="namedview64"
   inkscape:window-height="1232"
   inkscape:window-width="2282"
   inkscape:pageshadow="2"
   inkscape:pageopacity="0"
   guidetolerance="10"
   gridtolerance="10"
   objecttolerance="10"
   borderopacity="1"
   bordercolor="#666666"
   pagecolor="#ffffff" />
	<style
   id="style2"
   type="text/css">
	<![CDATA[
		.st1 {fill:#ffffff;stroke:#000000;stroke-linecap:round;stroke-linejoin:round;stroke-width:0.75}
		.st2 {fill:#f2f2f2;stroke:#000000;stroke-linecap:round;stroke-linejoin:round;stroke-width:0.75}
		.st3 {fill:#000000;stroke:#000000;stroke-linecap:round;stroke-linejoin:round;stroke-width:0.75}
		.st4 {fill:#000000;stroke:none;stroke-linecap:butt;stroke-width:0.075}
		.st5 {fill:none;fill-rule:evenodd;font-size:12px;overflow:visible;stroke-linecap:square;stroke-miterlimit:3}
	]]>
	</style>

	<g
   transform="matrix(1.879972,0,0,1.879972,-4.6588267,-1.8136233)"
   id="g60">
		<title
   id="title4">Page-1</title>
		<g
   transform="translate(5.66929,-21.685)"
   id="shape1-1">
			<title
   id="title6">Sheet.1</title>
			<rect
   id="rect8"
   class="st1"
   height="85.039398"
   width="113.386"
   y="39.685001"
   x="0" />
		</g>
		<g
   transform="translate(76.5354,-21.685)"
   id="shape12-3">
			<title
   id="title11">Sheet.12</title>
			<rect
   id="rect13"
   class="st2"
   height="85.039398"
   width="42.519699"
   y="39.685001"
   x="0" />
		</g>
		<g
   transform="translate(85.0394,-89.7165)"
   id="shape14-5">
			<title
   id="title16">Sheet.14</title>
			<rect
   id="rect18"
   class="st1"
   height="6.8031502"
   width="24.6614"
   y="117.921"
   x="0" />
		</g>
		<g
   transform="translate(85.0394,-78.6614)"
   id="shape15-7">
			<title
   id="title21">Sheet.15</title>
			<rect
   id="rect23"
   class="st1"
   height="6.8031502"
   width="24.6614"
   y="117.921"
   x="0" />
		</g>
		<g
   transform="translate(85.4646,-35.8583)"
   id="group29-9">
			<title
   id="title26">Sheet.29</title>
			<g
   id="shape30-10">
				<title
   id="title28">Sheet.30</title>
				<rect
   id="rect30"
   class="st1"
   ry="3.4015701"
   rx="3.4015701"
   height="6.8031502"
   width="16.157499"
   y="117.921"
   x="0" />
			</g>
			<g
   transform="translate(9.07087)"
   id="shape31-12">
				<title
   id="title33">Sheet.31</title>
				<ellipse
   id="ellipse35"
   class="st3"
   ry="3.4015701"
   rx="3.5433099"
   cy="121.323"
   cx="3.5433099" />
			</g>
		</g>
		<g
   transform="translate(85.4646,-48.0472)"
   id="group32-14">
			<title
   id="title39">Sheet.32</title>
			<g
   id="shape27-15">
				<title
   id="title41">Sheet.27</title>
				<rect
   id="rect43"
   class="st1"
   ry="3.4015701"
   rx="3.4015701"
   height="6.8031502"
   width="16.157499"
   y="117.921"
   x="0" />
			</g>
			<g
   id="shape28-17">
				<title
   id="title46">Sheet.28</title>
				<ellipse
   id="ellipse48"
   class="st3"
   ry="3.4015701"
   rx="3.5433099"
   cy="121.323"
   cx="3.5433099" />
			</g>
		</g>
		<g
   transform="translate(10.228,-34.1575)"
   id="group44-19">
			<title
   id="title52">Sheet.44</title>
			<g
   id="shape45-20">
				<title
   id="title54">path833</title>
				<path
   id="path56"
   class="st4"
   d="m 7.74,62.88 c -2.55,0.02 -5.01,1.54 -6.21,3.78 -1.26,2.23 -1.18,5.13 0.19,7.29 1.27,2.08 3.64,3.46 6.09,3.45 1.91,0 3.82,0 5.73,0 0,2.46 0,4.92 0,7.37 C 9.03,87.78 4.51,90.79 0,93.8 c 4.51,3.01 9.03,6.02 13.54,9.03 0,2.46 0,4.92 0,7.37 -4.3,0 -8.6,0 -12.9,0 0,4.84 0,9.68 0,14.52 9.14,0 18.28,0 27.42,0 0,-4.84 0,-9.68 0,-14.52 -4.3,0 -8.6,0 -12.9,0 0,-2.45 0,-4.91 0,-7.37 4.11,-2.74 8.22,-5.48 12.33,-8.22 2.52,0 5.04,0 7.56,0 0,2.87 0,5.73 0,8.6 9.15,0 18.29,0 27.43,0 0,-4.84 0,-9.68 0,-14.52 -9.14,0 -18.28,0 -27.43,0 0,1.44 0,2.87 0,4.31 -2.52,0 -5.04,0 -7.56,0 -4.11,-2.75 -8.22,-5.49 -12.33,-8.23 0,-2.45 0,-4.91 0,-7.37 2.01,-0.01 4.03,0.01 6.05,-0.01 2.62,-0.11 5.08,-1.8 6.17,-4.18 1.06,-2.21 0.88,-4.96 -0.48,-7.01 -1.29,-2.03 -3.65,-3.35 -6.07,-3.32 -4.37,0 -8.73,0 -13.09,0 z m 0.11,1.61 c 4.41,0.01 8.81,-0.01 13.22,0.01 2.11,0.06 4.09,1.46 4.92,3.4 0.81,1.84 0.54,4.1 -0.71,5.68 -1.07,1.41 -2.83,2.27 -4.61,2.21 -4.34,-0.01 -8.68,0 -13.03,-0.01 C 5.53,75.72 3.56,74.34 2.72,72.41 1.9,70.58 2.16,68.31 3.4,66.73 4.44,65.35 6.12,64.48 7.85,64.49 Z m 6.87,21.93 c 3.7,2.46 7.4,4.92 11.1,7.38 -3.83,2.55 -7.65,5.09 -11.47,7.63 C 10.53,98.89 6.7,96.35 2.88,93.8 c 3.82,-2.54 7.65,-5.09 11.47,-7.63 0.12,0.08 0.25,0.17 0.37,0.25 z m 22.62,3.89 c 7.84,0 15.68,0 23.53,0 0,3.76 0,7.52 0,11.29 -8.07,0 -16.14,0 -24.2,0 0,-3.77 0,-7.53 0,-11.29 0.22,0 0.44,0 0.67,0 z M 2.92,111.82 c 7.84,0 15.69,0 23.53,0 0,3.76 0,7.53 0,11.29 -8.07,0 -16.13,0 -24.2,0 0,-3.76 0,-7.53 0,-11.29 0.22,0 0.45,0 0.67,0 z" />
			</g>
		</g>
	</g>
</svg>
